<?xml version="1.0" standalone="no"?>
<!DOCTYPE svg PUBLIC "-//W3C//DTD SVG 20010904//EN"
 "http://www.w3.org/TR/2001/REC-SVG-20010904/DTD/svg10.dtd">
<svg version="1.0" xmlns="http://www.w3.org/2000/svg"
 width="556.000000pt" height="556.000000pt" viewBox="0 0 556.000000 556.000000"
 preserveAspectRatio="xMidYMid meet">
<metadata>
Created by potrace 1.14, written by Peter Selinger 2001-2017
</metadata>
<g transform="translate(0.000000,556.000000) scale(0.100000,-0.100000)"
fill="#000000" stroke="none">
<path d="M3208 5513 c7 -3 16 -2 19 1 4 3 -2 6 -13 5 -11 0 -14 -3 -6 -6z"/>
<path d="M2630 5393 c-186 -13 -414 -44 -455 -62 -11 -5 -47 -14 -80 -21 -162
-32 -646 -244 -638 -279 2 -6 -4 -8 -12 -5 -18 7 -217 -124 -209 -137 3 -5 1
-8 -4 -7 -44 14 -472 -386 -535 -500 -7 -11 -39 -60 -72 -108 -229 -329 -334
-574 -424 -989 -28 -128 -61 -418 -50 -429 3 -3 581 -8 1285 -12 l1281 -7 6
194 c8 274 9 2331 1 2352 -3 10 -15 16 -28 15 -11 -1 -41 -3 -66 -5z"/>
<path d="M2851 5390 c0 -3 -2 -425 -5 -937 l-5 -933 252 0 c139 0 261 -3 273
-6 l21 -5 6 573 c6 516 5 573 -9 581 -9 5 -30 21 -46 36 -65 58 -40 196 45
248 11 6 12 45 8 193 l-6 184 -85 18 c-47 9 -95 17 -107 18 l-23 0 0 -722 0
-723 35 -28 c97 -77 -30 -202 -145 -142 -58 30 -67 91 -20 135 l31 29 0 733 0
733 -111 10 c-60 6 -110 8 -109 5z"/>
<path d="M3495 5272 c-3 -9 -5 -86 -4 -170 l2 -154 32 -20 c42 -24 65 -73 65
-137 0 -42 -5 -56 -31 -86 -17 -19 -37 -35 -45 -35 -12 0 -14 -89 -14 -575 l0
-574 278 -3 277 -3 0 393 0 392 -33 20 c-43 26 -72 76 -72 124 0 47 35 113 70
131 l25 13 2 241 3 241 -111 56 c-61 30 -113 54 -115 51 -2 -2 -4 -286 -4
-632 l-1 -628 29 -14 c57 -27 67 -86 23 -135 -27 -31 -34 -33 -91 -33 -57 0
-64 2 -91 33 -38 43 -37 76 4 116 l32 33 -3 651 -2 651 -83 27 c-141 45 -135
44 -142 26z"/>
<path d="M4150 4846 c0 -90 -3 -184 -6 -210 -5 -36 -4 -46 8 -46 18 0 61 -45
82 -87 27 -55 21 -103 -20 -151 -19 -23 -43 -42 -51 -42 -14 0 -15 -17 -10
-147 4 -82 10 -260 14 -396 l6 -249 558 4 c553 3 559 3 553 23 -3 11 -22 68
-42 127 l-36 106 -220 4 c-220 3 -221 3 -259 -21 -53 -34 -139 -40 -187 -13
-19 10 -48 36 -65 56 -26 33 -30 46 -30 99 0 119 48 162 180 162 113 0 152
-31 164 -130 l6 -50 183 -3 c100 -1 182 0 182 3 0 3 -21 47 -46 98 -53 105
-223 364 -316 481 -52 65 -64 75 -66 58 -4 -24 -24 -29 -40 -9 -5 6 -15 32
-22 57 -7 24 -18 53 -25 64 -17 23 -177 166 -186 166 -4 0 -9 -136 -11 -302
-2 -167 -7 -311 -12 -320 -12 -27 -53 -19 -61 12 -3 14 -8 175 -12 357 l-6
333 -97 65 c-53 36 -100 65 -103 65 -4 0 -7 -74 -7 -164z"/>
<path d="M3400 4860 c-27 -27 -27 -90 0 -115 27 -24 79 -24 96 0 21 28 18 98
-4 118 -25 23 -68 21 -92 -3z"/>
<path d="M4062 4510 c-43 -18 -48 -72 -9 -108 35 -32 61 -35 90 -11 67 52 0
152 -81 119z"/>
<path d="M4575 3988 c-52 -30 -58 -72 -17 -112 37 -35 93 -44 127 -22 79 52
40 147 -58 146 -18 0 -41 -6 -52 -12z"/>
<path d="M4483 3403 l-313 -3 0 -268 c0 -147 4 -271 8 -277 4 -7 218 -9 616
-7 l608 4 -4 108 c-2 60 -6 111 -9 114 -3 3 -206 9 -450 12 -267 4 -449 11
-456 17 -18 13 -16 64 2 71 8 3 210 8 450 12 239 4 435 8 435 10 0 1 -6 33
-14 71 -8 37 -17 85 -20 106 l-7 37 -267 -2 c-147 -2 -408 -4 -579 -5z"/>
<path d="M2963 3393 l-113 -4 -2 -137 c0 -75 -2 -198 -3 -272 l-1 -135 271 -2
270 -3 0 275 0 275 -60 0 c-33 0 -103 2 -155 4 -52 1 -146 1 -207 -1z"/>
<path d="M3510 3397 c-3 -3 -4 -129 -2 -281 l3 -276 269 2 269 2 3 273 3 273
-220 0 c-121 0 -242 3 -270 6 -27 3 -52 4 -55 1z"/>
<path d="M21 3194 c0 -11 3 -14 6 -6 3 7 2 16 -1 19 -3 4 -6 -2 -5 -13z"/>
<path d="M4555 2721 l-380 -6 -3 -275 -2 -275 222 0 c123 0 383 -4 578 -9
l356 -9 18 94 c10 52 21 104 23 117 l5 22 -278 1 c-349 0 -393 7 -394 57 0 30
56 36 365 40 171 2 314 7 318 11 5 5 11 58 15 120 l7 111 -110 0 c-60 0 -166
2 -235 3 -69 2 -296 1 -505 -2z"/>
<path d="M154 2608 c8 -115 45 -354 72 -463 45 -179 140 -433 216 -575 167
-312 366 -559 638 -792 95 -82 116 -95 121 -80 4 10 8 151 10 314 l4 297 -75
68 c-41 37 -87 82 -103 100 -15 17 -66 58 -113 89 -86 59 -89 64 -87 129 0 14
-14 27 -51 45 -106 52 -129 178 -48 263 56 60 115 71 188 38 100 -45 124 -186
47 -272 l-36 -39 27 -38 c14 -20 88 -96 164 -169 80 -76 147 -148 157 -169 16
-34 17 -59 12 -230 -3 -105 -3 -264 0 -353 l6 -162 103 -60 c57 -34 106 -65
110 -70 3 -5 9 -9 15 -9 5 0 9 299 9 780 0 611 -3 781 -13 790 -6 6 -27 20
-46 33 -53 34 -83 100 -79 168 7 95 76 159 171 159 87 0 149 -66 155 -163 4
-74 -16 -122 -65 -152 l-32 -20 -1 -817 0 -817 48 -22 c26 -11 124 -49 217
-84 l170 -62 7 51 c8 68 10 1377 1 1578 l-6 156 -43 31 c-24 16 -51 45 -60 63
-26 49 -23 124 6 176 33 59 74 82 144 82 93 0 147 -40 166 -125 21 -94 -9
-166 -85 -204 -40 -20 -46 -27 -40 -45 4 -11 9 -418 12 -903 5 -802 7 -883 22
-887 62 -17 194 -37 201 -30 4 5 10 354 12 777 4 611 2 767 -8 767 -7 0 -24
14 -38 31 -62 73 -3 179 100 179 39 0 104 -68 104 -110 0 -36 -27 -88 -50 -95
-13 -4 -15 -92 -13 -787 l1 -783 49 -7 c26 -3 76 -7 109 -7 l62 -1 7 277 c4
153 4 719 1 1258 -4 539 -7 988 -6 998 0 16 -68 17 -1286 17 l-1287 0 7 -112z"/>
<path d="M2840 2441 l0 -276 273 0 272 0 0 278 0 278 -272 -3 -273 -2 0 -275z"/>
<path d="M3510 2442 l0 -277 268 0 268 0 -1 250 c0 138 3 262 8 278 l7 27
-275 0 -275 0 0 -278z"/>
<path d="M12 2445 c0 -16 2 -22 5 -12 2 9 2 23 0 30 -3 6 -5 -1 -5 -18z"/>
<path d="M1540 2303 c-31 -11 -60 -47 -60 -74 0 -15 12 -41 26 -58 64 -76 162
-2 130 97 -11 32 -57 49 -96 35z"/>
<path d="M2073 2300 c-27 -11 -43 -40 -43 -79 0 -66 107 -98 149 -45 29 37 28
98 -1 118 -24 17 -70 20 -105 6z"/>
<path d="M4170 2035 c1 -37 -11 -499 -16 -630 l-6 -160 31 -17 c98 -54 95
-211 -5 -270 l-36 -21 7 -191 c4 -105 9 -192 10 -194 3 -4 164 104 185 124 12
12 16 65 20 307 4 258 7 296 23 320 21 33 42 35 51 5 3 -13 9 -124 12 -248 3
-124 7 -244 10 -267 l5 -43 100 103 c86 88 99 107 100 137 1 19 4 46 8 60 7
25 7 25 19 -7 6 -18 13 -33 15 -33 10 0 189 236 211 278 9 17 22 36 29 44 22
22 105 155 138 221 17 34 40 74 50 89 11 14 19 30 19 35 0 5 -81 9 -179 9
-173 0 -180 -1 -185 -20 -3 -12 -6 -29 -6 -39 0 -69 -90 -146 -167 -147 -63 0
-117 26 -148 69 -36 53 -42 100 -20 172 20 65 63 113 112 125 39 10 130 -12
176 -42 l40 -26 216 4 216 3 31 95 c17 52 38 110 48 128 l17 32 -408 1 c-225
1 -479 2 -565 3 -100 1 -158 -3 -158 -9z"/>
<path d="M2840 1099 l0 -941 32 6 c17 3 69 9 115 13 l83 6 0 701 c0 503 3 705
11 713 8 8 3 15 -19 27 -60 31 -78 87 -47 146 17 34 62 60 100 60 64 0 125
-56 125 -115 0 -25 -34 -69 -71 -91 -13 -8 -14 -22 -8 -94 4 -47 8 -365 8
-707 1 -342 4 -624 9 -626 4 -2 52 8 107 22 l100 26 9 333 8 334 -47 42 c-46
40 -49 45 -53 102 -5 71 22 137 63 156 15 7 25 20 26 32 0 12 0 194 -1 406 l0
385 -275 3 -275 2 0 -941z"/>
<path d="M3500 1696 c0 -188 -3 -370 -6 -403 l-7 -60 36 -22 c50 -31 81 -97
72 -153 -9 -56 -33 -95 -70 -117 l-30 -17 0 -321 c0 -177 3 -324 6 -327 3 -3
54 13 112 36 l107 42 2 560 c2 623 3 668 11 690 4 10 -3 22 -19 32 -40 26 -58
69 -44 107 24 70 85 100 154 77 47 -15 76 -53 76 -100 0 -36 -20 -64 -63 -87
-17 -9 -18 -42 -17 -622 0 -338 2 -617 5 -620 2 -4 54 17 114 48 l111 55 0
226 0 227 -39 31 c-48 38 -66 86 -56 150 5 37 16 56 50 90 l44 44 3 389 3 389
-277 0 -278 0 0 -344z"/>
<path d="M802 1947 c-12 -13 -22 -35 -22 -50 0 -35 38 -76 77 -83 25 -5 37 -1
57 19 32 32 34 74 5 111 -27 35 -86 36 -117 3z"/>
<path d="M2406 1881 c-11 -18 5 -60 26 -67 29 -9 67 30 52 54 -12 19 -69 29
-78 13z"/>
<path d="M4536 1729 c-58 -69 -7 -149 95 -149 23 0 31 8 54 53 29 61 26 78
-20 107 -49 31 -98 27 -129 -11z"/>
<path d="M4048 1153 c-39 -44 -29 -102 21 -128 40 -20 48 -19 76 10 34 33 35
97 3 119 -30 21 -81 20 -100 -1z"/>
<path d="M3403 1135 c-33 -23 -33 -97 -1 -119 49 -35 99 -12 112 50 13 58 -62
104 -111 69z"/>
<path d="M2098 93 c7 -3 16 -2 19 1 4 3 -2 6 -13 5 -11 0 -14 -3 -6 -6z"/>
<path d="M2148 83 c7 -3 16 -2 19 1 4 3 -2 6 -13 5 -11 0 -14 -3 -6 -6z"/>
<path d="M2668 13 c6 -2 18 -2 25 0 6 3 1 5 -13 5 -14 0 -19 -2 -12 -5z"/>
</g>
</svg>
